<svg width="98" height="25" viewBox="0 0 98 25" fill="none" xmlns="http://www.w3.org/2000/svg">
<path d="M24.5 12.5C24.5 19.4036 19.0155 25 12.25 25C5.48451 25 0 19.4036 0 12.5C0 5.59644 5.48451 0 12.25 0C19.0155 0 24.5 5.59644 24.5 12.5Z" fill="#566885"/>
<path d="M98 12.5C98 19.4036 92.5155 25 85.75 25C78.9845 25 73.5 19.4036 73.5 12.5C73.5 5.59644 78.9845 0 85.75 0C92.5155 0 98 5.59644 98 12.5Z" fill="#566885"/>
<path d="M61.25 12.5C61.25 19.4036 55.7655 25 49 25C42.2345 25 36.75 19.4036 36.75 12.5C36.75 5.59644 42.2345 0 49 0C55.7655 0 61.25 5.59644 61.25 12.5Z" fill="#566885"/>
</svg>
